<svg width="35" height="40" viewBox="0 0 35 40" fill="none" xmlns="http://www.w3.org/2000/svg">
<path d="M29.8783 8.42133C29.6126 8.28397 29.3538 8.13339 29.1031 7.97016C28.3741 7.48819 27.7057 6.92028 27.1122 6.27867C25.6275 4.5798 25.0729 2.85633 24.8687 1.64965H24.8769C24.7063 0.648047 24.7768 0 24.7875 0H18.0248V26.1499C18.0248 26.501 18.0248 26.848 18.0101 27.1909C18.0101 27.2336 18.006 27.2729 18.0035 27.3189C18.0035 27.3377 18.0035 27.3574 17.9994 27.3771C17.9994 27.382 17.9994 27.387 17.9994 27.3919C17.9281 28.3301 17.6273 29.2365 17.1235 30.0312C16.6198 30.826 15.9284 31.4847 15.1102 31.9495C14.2576 32.4346 13.2932 32.6891 12.3122 32.6878C9.16134 32.6878 6.60771 30.1186 6.60771 26.9456C6.60771 23.7727 9.16134 21.2034 12.3122 21.2034C12.9086 21.2029 13.5014 21.2967 14.0685 21.4815L14.0767 14.5958C12.3551 14.3734 10.6062 14.5103 8.94016 14.9976C7.27415 15.485 5.72722 16.3124 4.39697 17.4275C3.23136 18.4403 2.25142 19.6487 1.50126 20.9984C1.21579 21.4905 0.138725 23.4683 0.00829489 26.6782C-0.0737364 28.5001 0.473412 30.3877 0.734271 31.1678V31.1842C0.898334 31.6436 1.53408 33.2112 2.57013 34.5327C3.40557 35.5928 4.39261 36.524 5.49947 37.2963V37.2799L5.51587 37.2963C8.78974 39.521 12.4196 39.375 12.4196 39.375C13.048 39.3496 15.1529 39.375 17.5433 38.2421C20.1945 36.9862 21.7039 35.1151 21.7039 35.1151C22.6682 33.9971 23.4349 32.723 23.9713 31.3474C24.5832 29.7388 24.7875 27.8094 24.7875 27.0383V13.1652C24.8695 13.2144 25.9622 13.9371 25.9622 13.9371C25.9622 13.9371 27.5363 14.9461 29.9924 15.6032C31.7544 16.0707 34.1284 16.1692 34.1284 16.1692V9.45574C33.2966 9.54598 31.6076 9.28348 29.8783 8.42133Z" fill="#757575"/>
</svg>
