<svg width="22" height="21" viewBox="0 0 22 21" fill="none" xmlns="http://www.w3.org/2000/svg">
<path fill-rule="evenodd" clip-rule="evenodd" d="M2.50002 10.5C2.50002 5.80558 6.3056 2 11 2C15.6944 2 19.5 5.80558 19.5 10.5C19.5 15.1944 15.6944 19 11 19C9.3278 19 7.77127 18.5182 6.45798 17.6861C6.21357 17.5313 5.91408 17.4899 5.63684 17.5726L2.75769 18.4319L3.84173 15.8953C3.96986 15.5955 3.94379 15.2521 3.77187 14.9751C2.9657 13.676 2.50002 12.1439 2.50002 10.5ZM11 0C5.20103 0 0.500022 4.70101 0.500022 10.5C0.500022 12.3381 0.973162 14.0683 1.80465 15.5727L0.0804715 19.607C-0.0719505 19.9637 -0.00438857 20.3763 0.253821 20.6657C0.512031 20.9552 0.914322 21.0692 1.28599 20.9582L5.78541 19.6155C7.32245 20.4965 9.1037 21 11 21C16.799 21 21.5 16.299 21.5 10.5C21.5 4.70101 16.799 0 11 0ZM13.2925 12.6824L11.9783 13.6081C11.3628 13.2575 10.6823 12.7681 9.9997 12.0855C9.2901 11.3759 8.76402 10.6433 8.37612 9.9713L9.2113 9.2624C9.5697 8.9582 9.6678 8.44533 9.447 8.03028L8.38284 6.03028C8.23954 5.76097 7.98116 5.5718 7.68115 5.51654C7.38113 5.46129 7.07231 5.546 6.84247 5.74659L6.52696 6.02195C5.76823 6.68414 5.3195 7.7723 5.69141 8.8741C6.07698 10.0163 6.89983 11.814 8.58552 13.4997C10.3991 15.3133 12.2413 16.0275 13.3186 16.3049C14.1866 16.5283 15.008 16.2288 15.5868 15.7572L16.1783 15.2752C16.4313 15.0691 16.5678 14.7524 16.544 14.4269C16.5201 14.1014 16.3389 13.808 16.0585 13.6409L14.3802 12.6409C14.0412 12.439 13.6152 12.4552 13.2925 12.6824Z" fill="#2EA033"/>
</svg>
