<svg width="52" height="36" viewBox="0 0 52 36" fill="none" xmlns="http://www.w3.org/2000/svg">
<g clip-path="url(#clip0_2991_4352)">
<path d="M50.8516 5.61494C50.2446 3.40641 48.4925 1.6812 46.2494 1.08358C42.2142 0 25.9733 0 25.9733 0C25.9733 0 9.73231 0.032836 5.69709 1.11642C3.45405 1.71404 1.70189 3.43925 1.09493 5.64777C-0.12564 12.7075 -0.599195 23.4645 1.12828 30.2419C1.73524 32.4504 3.4874 34.1756 5.73044 34.7732C9.76566 35.8568 26.0066 35.8568 26.0066 35.8568C26.0066 35.8568 42.2475 35.8568 46.2828 34.7732C48.5258 34.1756 50.278 32.4504 50.8849 30.2419C52.1722 23.1723 52.569 12.4218 50.8516 5.61494Z" fill="#757575"/>
<path d="M20.8047 25.6133L34.2777 17.9297L20.8047 10.2461V25.6133Z" fill="white"/>
</g>
<defs>
<clipPath id="clip0_2991_4352">
<rect width="52" height="36" fill="white"/>
</clipPath>
</defs>
</svg>
